<svg id="visual" viewBox="0 0 900 600" width="900" height="600" xmlns="http://www.w3.org/2000/svg" xmlns:xlink="http://www.w3.org/1999/xlink" version="1.1"><rect x="0" y="0" width="900" height="600" fill="#141416"></rect><path d="M0 444L21.5 446.2C43 448.3 86 452.7 128.8 451.8C171.7 451 214.3 445 257.2 440.3C300 435.7 343 432.3 385.8 425.2C428.7 418 471.3 407 514.2 418.3C557 429.7 600 463.3 642.8 471.5C685.7 479.7 728.3 462.3 771.2 445.2C814 428 857 411 878.5 402.5L900 394L900 601L878.5 601C857 601 814 601 771.2 601C728.3 601 685.7 601 642.8 601C600 601 557 601 514.2 601C471.3 601 428.7 601 385.8 601C343 601 300 601 257.2 601C214.3 601 171.7 601 128.8 601C86 601 43 601 21.5 601L0 601Z" fill="#B09109" stroke-linecap="round" stroke-linejoin="miter"></path></svg>