<svg id="visual" viewBox="0 0 960 540" width="960" height="540" xmlns="http://www.w3.org/2000/svg" xmlns:xlink="http://www.w3.org/1999/xlink" version="1.1"><rect x="0" y="0" width="960" height="540" fill="#2F4050"></rect><path d="M0 418L26.7 409.3C53.3 400.7 106.7 383.3 160 391.8C213.3 400.3 266.7 434.7 320 442.2C373.3 449.7 426.7 430.3 480 418.2C533.3 406 586.7 401 640 405C693.3 409 746.7 422 800 416.3C853.3 410.7 906.7 386.3 933.3 374.2L960 362L960 541L933.3 541C906.7 541 853.3 541 800 541C746.7 541 693.3 541 640 541C586.7 541 533.3 541 480 541C426.7 541 373.3 541 320 541C266.7 541 213.3 541 160 541C106.7 541 53.3 541 26.7 541L0 541Z" fill="#B09109" stroke-linecap="round" stroke-linejoin="miter"></path></svg>