<svg id="visual" viewBox="0 0 900 600" width="900" height="600" xmlns="http://www.w3.org/2000/svg" xmlns:xlink="http://www.w3.org/1999/xlink" version="1.1"><rect x="0" y="0" width="900" height="600" fill="#141416"></rect><path d="M0 420L21.5 421.3C43 422.7 86 425.3 128.8 419.3C171.7 413.3 214.3 398.7 257.2 398.5C300 398.3 343 412.7 385.8 420.3C428.7 428 471.3 429 514.2 416.7C557 404.3 600 378.7 642.8 370.2C685.7 361.7 728.3 370.3 771.2 381.2C814 392 857 405 878.5 411.5L900 418L900 601L878.5 601C857 601 814 601 771.2 601C728.3 601 685.7 601 642.8 601C600 601 557 601 514.2 601C471.3 601 428.7 601 385.8 601C343 601 300 601 257.2 601C214.3 601 171.7 601 128.8 601C86 601 43 601 21.5 601L0 601Z" fill="#f4a949"></path><path d="M0 404L21.5 411.7C43 419.3 86 434.7 128.8 443C171.7 451.3 214.3 452.7 257.2 452.8C300 453 343 452 385.8 442C428.7 432 471.3 413 514.2 403.3C557 393.7 600 393.3 642.8 401.7C685.7 410 728.3 427 771.2 427.2C814 427.3 857 410.7 878.5 402.3L900 394L900 601L878.5 601C857 601 814 601 771.2 601C728.3 601 685.7 601 642.8 601C600 601 557 601 514.2 601C471.3 601 428.7 601 385.8 601C343 601 300 601 257.2 601C214.3 601 171.7 601 128.8 601C86 601 43 601 21.5 601L0 601Z" fill="#aebc52"></path><path d="M0 435L21.5 444C43 453 86 471 128.8 477.2C171.7 483.3 214.3 477.7 257.2 470.3C300 463 343 454 385.8 459C428.7 464 471.3 483 514.2 489.5C557 496 600 490 642.8 486.7C685.7 483.3 728.3 482.7 771.2 483.8C814 485 857 488 878.5 489.5L900 491L900 601L878.5 601C857 601 814 601 771.2 601C728.3 601 685.7 601 642.8 601C600 601 557 601 514.2 601C471.3 601 428.7 601 385.8 601C343 601 300 601 257.2 601C214.3 601 171.7 601 128.8 601C86 601 43 601 21.5 601L0 601Z" fill="#65c283"></path><path d="M0 494L21.5 497.8C43 501.7 86 509.3 128.8 516.2C171.7 523 214.3 529 257.2 524.3C300 519.7 343 504.3 385.8 495.7C428.7 487 471.3 485 514.2 490.3C557 495.7 600 508.3 642.8 510.8C685.7 513.3 728.3 505.7 771.2 503C814 500.3 857 502.7 878.5 503.8L900 505L900 601L878.5 601C857 601 814 601 771.2 601C728.3 601 685.7 601 642.8 601C600 601 557 601 514.2 601C471.3 601 428.7 601 385.8 601C343 601 300 601 257.2 601C214.3 601 171.7 601 128.8 601C86 601 43 601 21.5 601L0 601Z" fill="#18beb6"></path><path d="M0 551L21.5 547.2C43 543.3 86 535.7 128.8 532.5C171.7 529.3 214.3 530.7 257.2 530.5C300 530.3 343 528.7 385.8 530C428.7 531.3 471.3 535.7 514.2 539.2C557 542.7 600 545.3 642.8 543.3C685.7 541.3 728.3 534.7 771.2 531C814 527.3 857 526.7 878.5 526.3L900 526L900 601L878.5 601C857 601 814 601 771.2 601C728.3 601 685.7 601 642.8 601C600 601 557 601 514.2 601C471.3 601 428.7 601 385.8 601C343 601 300 601 257.2 601C214.3 601 171.7 601 128.8 601C86 601 43 601 21.5 601L0 601Z" fill="#41b3d3"></path></svg>